# xmcd
#
# Track frame offsets: 
#        150
#        8234
#        19314
#        29495
#        40311
#        65857
#        79561
#        97759
#        112251
#        120038
#        133371
#        144408
#
# Disc length: 2122 seconds
#
# Revision: 0
# Processed by: cddbd v1.5.2PL0 Copyright (c) Steve Scherf et al.
# Submitted via: ExactAudioCopy v1.3
#
DISCID=a008480c
DTITLE=Marty Robbins - The Fastest Gun Around
DYEAR=1973
DGENRE=Country
TTITLE0=The Fastest Gun Around
TTITLE1=Waiting In Reno
TTITLE2=Five Brothers
TTITLE3=In The Valley Of The Rio Grande
TTITLE4=San Angelo
TTITLE5=Bound For Old Mexico
TTITLE6=Big Iron
TTITLE7=Cool Water
TTITLE8=A Hundred And Sixty Acres
TTITLE9=The Cowboy In The Continental Suit
TTITLE10=Red River Valley
TTITLE11=Ride Cowboy Ride
EXTD=
EXTT0=
EXTT1=
EXTT2=
EXTT3=
EXTT4=
EXTT5=
EXTT6=
EXTT7=
EXTT8=
EXTT9=
EXTT10=
EXTT11=
PLAYORDER=
